<svg id="Capa_1" enable-background="new 0 0 512 512" height="512" viewBox="0 0 512 512" width="512" xmlns="http://www.w3.org/2000/svg"><g><path d="m338.451 29.251h-164.902l-77.159 77.159v299.179l77.159 77.159h133.531c.179 0 .357-.001.536-.002 24.626-.142 44.419-20.392 44.419-45.027v-14.099c0-2.457 1.992-4.449 4.449-4.449h14.098c24.637 0 44.89-19.798 45.028-44.428.001-.176.002-.352.002-.528v-267.804z" fill="#f1f1f4"/><path d="m374.404 65.204v288.41c0 .176-.001.352-.002.528-.138 24.629-20.391 44.428-45.028 44.427-7.954 0-14.098 0-14.098 0-2.457 0-4.449 1.992-4.449 4.449v14.099c0 24.634-19.794 44.884-44.419 45.027-.179.001-.357.002-.536.002h-112.927l20.604 20.604h133.531c.179 0 .357-.001.536-.002 24.626-.142 53.654-11.157 53.654-35.792 0 0 10.593-18.548 18.547-18.548 24.637 0 35.655-29.033 35.793-53.662.001-.176.002-.352.002-.528v-267.807z" fill="#dfdde2"/><path d="m379.112 65.75h-246.224v278.029c0 .868.704 1.572 1.572 1.572h243.08c.868 0 1.572-.704 1.572-1.572z" fill="#dd636e"/><path d="m374.404 65.75v279.601h3.137c.868 0 1.572-.704 1.572-1.572v-273.867l-4.162-4.162z" fill="#da4a54"/><path d="m374.404 65.75v279.601h3.137c.868 0 1.572-.704 1.572-1.572v-278.029z" fill="#da4a54"/><g fill="#e7a561"><path d="m183.503 19.297-97.067 97.067c-.444.444-1.165.444-1.61 0l-17.355-17.354c-.444-.444-.444-1.165 0-1.61l97.067-97.067c.444-.444 1.165-.444 1.61 0l17.354 17.354c.445.445.445 1.166.001 1.61z"/><path d="m183.503 492.703-97.067-97.067c-.444-.444-1.165-.444-1.61 0l-17.355 17.354c-.444.444-.444 1.165 0 1.61l97.067 97.067c.444.445 1.165.445 1.61 0l17.354-17.354c.445-.445.445-1.166.001-1.61z"/><path d="m328.497 19.297 97.067 97.067c.444.444 1.165.444 1.61 0l17.354-17.354c.444-.444.444-1.165 0-1.61l-97.067-97.067c-.444-.444-1.165-.444-1.61 0l-17.354 17.354c-.444.445-.444 1.166 0 1.61z"/></g><path d="m135.621 29.251h-34.783c-2.457 0-4.449 1.992-4.449 4.449v34.782z" fill="#f1f1f4"/><path d="m415.611 68.483v-34.783c0-2.457-1.992-4.449-4.449-4.449h-34.783z" fill="#dfdde2"/><path d="m96.389 443.517v34.783c0 2.457 1.992 4.449 4.449 4.449h34.783z" fill="#dfdde2"/><path d="m257.93 389.576h-4.897l1.902-7.097c1.105-4.122-1.341-8.359-5.463-9.463-4.123-1.101-8.359 1.342-9.463 5.463l-2.974 11.097h-12.365l1.902-7.098c1.105-4.122-1.341-8.358-5.463-9.463-4.123-1.101-8.359 1.342-9.463 5.464l-2.973 11.097h-12.753c-4.268 0-7.726 3.459-7.726 7.726s3.459 7.726 7.726 7.726h8.613l-3.459 12.909h-10.458c-4.268 0-7.726 3.459-7.726 7.726s3.459 7.726 7.726 7.726h6.317l-1.336 4.984c-1.105 4.122 1.341 8.358 5.463 9.463.67.179 1.343.265 2.005.265 3.411 0 6.533-2.277 7.458-5.729l2.407-8.983h12.364l-1.336 4.984c-1.105 4.122 1.341 8.359 5.463 9.463.67.179 1.343.265 2.005.265 3.411 0 6.533-2.277 7.458-5.728l2.407-8.984h11.332c4.268 0 7.726-3.459 7.726-7.726s-3.459-7.726-7.726-7.726h-7.192l3.459-12.909h9.037c4.268 0 7.726-3.459 7.726-7.726.003-4.267-3.456-7.726-7.723-7.726zm-28.494 28.362h-12.364l3.459-12.909h12.365zm99.675 22.436c0 4.267-3.459 7.726-7.726 7.726h-31.454c-4.268 0-7.726-3.459-7.726-7.726s3.459-7.726 7.726-7.726h8v-31.756c-1.83.516-3.761.793-5.754.793-4.268 0-7.726-3.459-7.726-7.726s3.459-7.726 7.726-7.726c3.172 0 5.754-2.581 5.754-5.754 0-4.267 3.459-7.726 7.726-7.726s7.726 3.459 7.726 7.726v52.169h8.001c4.268 0 7.727 3.459 7.727 7.726z" fill="#8b818e"/><path d="m321.384 448.101c4.268 0 7.726-3.459 7.726-7.726s-3.459-7.726-7.726-7.726h-8.001v-33.657c-1.51.711-2.556 2.247-2.556 4.027v14.099c0 11.962-4.667 22.89-12.288 30.984h22.845z" fill="#756e78"/><path d="m96.542 106.258v-37.928l-15.452 15.452v28.846l3.736 3.736c.445.444 1.165.444 1.61 0z" fill="#e49542"/><path d="m360.927 13.799h-28.54l-3.889 3.889c-.445.444-.445 1.165 0 1.61l9.954 9.954h37.928z" fill="#e49542"/><path d="m151.073 498.201h28.54l3.889-3.889c.445-.444.445-1.165 0-1.61l-9.954-9.954h-37.928z" fill="#e49542"/><path d="m280.542 236.389v-10.492c-8.669 5.93-40.789 5.93-49.458 0v10.492c0 5.784-4.689 10.473-10.473 10.473l35.203 28.959 35.203-28.959c-5.786 0-10.475-4.689-10.475-10.473z" fill="#ffddce"/><path d="m310.857 246.862h-19.842l-29.216 98.489h81.203c1.568 0 2.84-1.271 2.84-2.84v-60.665c0-19.321-15.663-34.984-34.985-34.984z" fill="#665e66"/><path d="m220.61 246.862h-19.842c-19.321 0-34.984 15.663-34.984 34.984v60.665c0 1.568 1.271 2.84 2.84 2.84h81.203z" fill="#665e66"/><path d="m253.083 264.715-32.473-17.853 29.217 98.489h11.972l29.217-98.489-32.473 17.853c-1.7.935-3.76.935-5.46 0z" fill="#da4a54"/><path d="m253.083 264.715-17.952 31.095-14.521-48.948z" fill="#dd636e"/><path d="m258.543 264.715 17.952 31.095 14.521-48.948z" fill="#dd636e"/><path d="m247.868 118.022-40.499 32.018c.016.286.034.572.055.859l3.263 44.308c1.741 23.636 30.88 40.016 45.126 40.016s43.385-16.38 45.125-40.016l3.302-44.832c.008-.112.016-.223.023-.334z" fill="#ffece4"/><path d="m205.726 308.629c0-4.502-3.65-8.151-8.151-8.151s-8.151 3.65-8.151 8.151v36.722h16.303v-36.722z" fill="#544f57"/><path d="m322.203 308.629c0-4.502-3.65-8.151-8.151-8.151s-8.151 3.65-8.151 8.151v36.722h16.303v-36.722z" fill="#544f57"/><path d="m255.829 202.254c-4.502 0-8.151-3.65-8.151-8.151 0-3.978 2.849-7.29 6.617-8.007v-10.226c0-4.502 3.65-8.151 8.152-8.151s8.151 3.65 8.151 8.151v11.615c0 8.144-6.625 14.769-14.769 14.769z" fill="#ffddce"/><path d="m228.942 147.178 16.372-16.372c.943-.943 2.554-.275 2.554 1.058v9.43c0 4.83 3.916 8.746 8.746 8.746h47.649c1.886-28.205-20.662-52.134-49.062-51.787-28.079.344-49.424 23.869-47.833 51.787h14.662c2.593.001 5.079-1.029 6.912-2.862z" fill="#ffe07d"/><path d="m415.611 374.218c0 .157 0 .313-.001.47-.107 24.656-20.372 44.485-45.029 44.485-7.954 0-14.098 0-14.098 0-2.457 0-4.449 1.992-4.449 4.449v14.099c0 24.656-19.829 44.921-44.485 45.027-.157.001-.313.001-.47.001 28.784 0 56.389-11.434 76.743-31.788 20.354-20.354 31.789-47.959 31.789-76.743z" fill="#f1f1f4"/></g></svg>