<svg id="poles" enable-background="new 0 0 300 300" height="512" viewBox="0 0 300 300" width="512" xmlns="http://www.w3.org/2000/svg"><g><circle cx="157.968" cy="172" fill="#e5efef" r="92"/><g><path d="m261.968 264h-104v-172l104-28z" fill="#9dc1e4"/><path d="m261.968 268h-104c-2.211 0-4-1.791-4-4v-172c0-1.809 1.215-3.393 2.961-3.863l104-28c1.199-.326 2.48-.07 3.473.688.988.758 1.566 1.932 1.566 3.176v200c0 2.208-1.789 3.999-4 3.999zm-100-8h96v-190.781l-96 25.848z" fill="#4c241d"/></g><g><path d="m157.968 264h-104v-124l104-20z" fill="#fc8c29"/><path d="m157.968 268h-104c-2.211 0-4-1.791-4-4v-124c0-1.918 1.359-3.566 3.246-3.928l104-20c1.164-.229 2.379.084 3.301.844s1.453 1.891 1.453 3.084v144c0 2.209-1.789 4-4 4zm-100-8h96v-135.158l-96 18.463z" fill="#4c241d"/></g><g><path d="m126.188 232h-40.427c-17.559 0-31.793 14.234-31.793 31.793h104.012c0-17.559-14.234-31.793-31.792-31.793z" fill="#b5a19c"/><path d="m157.98 267.793h-104.012c-2.211 0-4-1.791-4-4 0-19.736 16.059-35.793 35.793-35.793h40.426c19.734 0 35.793 16.057 35.793 35.793 0 2.209-1.789 4-4 4zm-99.727-8h95.441c-1.945-13.438-13.538-23.793-27.507-23.793h-40.426c-13.969 0-25.562 10.355-27.508 23.793z" fill="#4c241d"/></g><g><path d="m126.188 232h-39.149l10.528 31.792h18.403l10.405-31.783c-.063 0-.124-.009-.187-.009z" fill="#fff"/><path d="m115.968 267.793h-18.402c-1.727 0-3.254-1.105-3.797-2.742l-10.527-31.793c-.402-1.221-.199-2.559.555-3.6.75-1.041 1.957-1.658 3.242-1.658h39.148c.105 0 .301.01.406.018 1.223.096 2.383.75 3.062 1.77.68 1.021.902 2.301.52 3.467l-10.406 31.783c-.539 1.644-2.07 2.755-3.801 2.755zm-15.512-8h12.613l7.79-23.793h-28.281z" fill="#4c241d"/></g><g><path d="m105.918 236.223c-4.391 0-7.95-3.559-7.95-7.95v-8.591h15.901v8.591c0 4.391-3.559 7.95-7.951 7.95z" fill="#ffe8dc"/><path d="m105.917 240.223c-6.59 0-11.949-5.361-11.949-11.951v-8.59c0-2.209 1.789-4 4-4h15.902c2.211 0 4 1.791 4 4v8.59c0 6.589-5.363 11.951-11.953 11.951zm-3.949-16.541v4.59c0 2.178 1.773 3.951 3.949 3.951 2.18 0 3.953-1.773 3.953-3.951v-4.59z" fill="#4c241d"/></g><g><path d="m116.116 220h-20.296c-5.441 0-9.852-4.411-9.852-9.852v-38.148h40v38.148c0 5.441-4.411 9.852-9.852 9.852z" fill="#ffe8dc"/><path d="m116.117 224h-20.297c-7.637 0-13.852-6.213-13.852-13.852v-38.148c0-2.209 1.789-4 4-4h40c2.211 0 4 1.791 4 4v38.148c0 7.639-6.215 13.852-13.851 13.852zm-26.149-48v34.148c0 3.227 2.625 5.852 5.852 5.852h20.297c3.227 0 5.852-2.625 5.852-5.852v-34.148z" fill="#4c241d"/></g><g><path d="m132.024 200h-6.056v-11.888h6.056c3.283 0 5.944 2.661 5.944 5.944 0 3.283-2.661 5.944-5.944 5.944z" fill="#ffe8dc"/><path d="m132.023 204h-6.055c-2.211 0-4-1.791-4-4v-11.889c0-2.209 1.789-4 4-4h6.055c5.484 0 9.945 4.461 9.945 9.943 0 5.485-4.461 9.946-9.945 9.946zm-2.055-8h2.055c1.074 0 1.945-.873 1.945-1.945s-.871-1.943-1.945-1.943h-2.055z" fill="#4c241d"/></g><g><path d="m79.912 188.112h6.056v11.888h-6.056c-3.283 0-5.944-2.661-5.944-5.944 0-3.283 2.661-5.944 5.944-5.944z" fill="#ffe8dc"/><path d="m85.968 204h-6.055c-5.484 0-9.945-4.461-9.945-9.945 0-5.482 4.461-9.943 9.945-9.943h6.055c2.211 0 4 1.791 4 4v11.888c0 2.209-1.789 4-4 4zm-6.055-11.889c-1.074 0-1.945.871-1.945 1.943s.871 1.946 1.945 1.946h2.055v-3.889z" fill="#4c241d"/></g><g fill="#4c241d"><path d="m65.968 48c-2.211 0-4-1.791-4-4v-8c0-2.209 1.789-4 4-4s4 1.791 4 4v8c0 2.209-1.789 4-4 4z"/><path d="m65.968 72c-2.211 0-4-1.791-4-4v-8c0-2.209 1.789-4 4-4s4 1.791 4 4v8c0 2.209-1.789 4-4 4z"/><path d="m57.968 56h-8c-2.211 0-4-1.791-4-4s1.789-4 4-4h8c2.211 0 4 1.791 4 4s-1.789 4-4 4z"/><path d="m81.968 56h-8c-2.211 0-4-1.791-4-4s1.789-4 4-4h8c2.211 0 4 1.791 4 4s-1.789 4-4 4z"/><path d="m131.968 100c-7.719 0-14-6.281-14-14s6.281-14 14-14 14 6.281 14 14-6.281 14-14 14zm0-20c-3.309 0-6 2.691-6 6s2.691 6 6 6 6-2.691 6-6-2.691-6-6-6z"/><path d="m42.573 102.391c0 2.362-1.914 4.277-4.276 4.277s-4.276-1.915-4.276-4.277 1.914-4.276 4.276-4.276c2.361 0 4.276 1.915 4.276 4.276z"/><path d="m182.573 42.391c0 2.362-1.914 4.277-4.276 4.277s-4.276-1.915-4.276-4.277 1.914-4.276 4.276-4.276 4.276 1.915 4.276 4.276z"/></g><g><path d="m133.968 188.112v-17.827c0-3.141-.94-6.275-2.952-8.71-7.88-9.534-22.805-13.896-34.812-15.891-9.517-1.582-18.175 5.656-18.175 15.17v27.259l7.94-.112v-16s20 16 40 8v8z" fill="#bf7e68"/><path d="m78.027 192.111c-1.051 0-2.059-.414-2.809-1.152-.762-.752-1.191-1.777-1.191-2.848v-27.26c0-5.67 2.496-11.035 6.844-14.723 4.418-3.748 10.238-5.35 15.988-4.391 12.137 2.016 28.449 6.65 37.238 17.287 2.496 3.021 3.871 7.02 3.871 11.26v17.826c0 1.07-.43 2.096-1.191 2.848-.766.752-1.906 1.066-2.863 1.152l-8-.111c-2.188-.031-3.945-1.812-3.945-4v-2.594c-12.871 2.861-24.914-2.057-32-6.031v8.626c0 2.188-1.758 3.969-3.945 4l-7.941.111c-.017 0-.037 0-.056 0zm47.941-16.111c.789 0 1.57.232 2.242.688 1.098.744 1.758 1.984 1.758 3.312v-9.715c0-2.385-.723-4.572-2.039-6.164-7.211-8.73-21.59-12.699-32.383-14.492-3.398-.564-6.879.383-9.504 2.604-2.551 2.164-4.016 5.305-4.016 8.619v10.467c.219-1.258 1.031-2.352 2.203-2.918 1.391-.672 3.023-.482 4.23.471.184.145 18.477 14.426 36.023 7.414.478-.192.982-.286 1.486-.286z" fill="#4c241d"/></g><g><path d="m230.188 232h-40.427c-17.559 0-31.793 14.234-31.793 31.793h104.012c0-17.559-14.234-31.793-31.792-31.793z" fill="#bd53b5"/><path d="m261.98 267.793h-104.012c-2.211 0-4-1.791-4-4 0-19.736 16.059-35.793 35.793-35.793h40.426c19.734 0 35.793 16.057 35.793 35.793 0 2.209-1.789 4-4 4zm-99.727-8h95.441c-1.945-13.438-13.538-23.793-27.507-23.793h-40.426c-13.969 0-25.562 10.355-27.508 23.793z" fill="#4c241d"/></g><g><path d="m230.188 232h-39.149l10.528 31.792h18.403l10.405-31.783c-.063 0-.124-.009-.187-.009z" fill="#fff"/><path d="m219.968 267.793h-18.402c-1.727 0-3.254-1.105-3.797-2.742l-10.527-31.793c-.402-1.221-.199-2.559.555-3.6.75-1.041 1.957-1.658 3.242-1.658h39.148c.105 0 .301.01.406.018 1.223.096 2.383.75 3.062 1.77.68 1.021.902 2.301.52 3.467l-10.406 31.783c-.539 1.644-2.07 2.755-3.801 2.755zm-15.512-8h12.613l7.79-23.793h-28.281z" fill="#4c241d"/></g><g><path d="m181.968 180h56v52h-56z" fill="#fff"/><path d="m237.968 236h-56c-2.211 0-4-1.791-4-4v-52c0-2.209 1.789-4 4-4h56c2.211 0 4 1.791 4 4v52c0 2.209-1.789 4-4 4zm-52-8h48v-44h-48z" fill="#4c241d"/></g><g><path d="m209.918 236.223c-4.391 0-7.95-3.559-7.95-7.95v-8.591h15.901v8.591c0 4.391-3.559 7.95-7.951 7.95z" fill="#bf7e68"/><path d="m209.917 240.223c-6.59 0-11.949-5.361-11.949-11.951v-8.59c0-2.209 1.789-4 4-4h15.902c2.211 0 4 1.791 4 4v8.59c0 6.589-5.363 11.951-11.953 11.951zm-3.949-16.541v4.59c0 2.178 1.773 3.951 3.949 3.951 2.18 0 3.953-1.773 3.953-3.951v-4.59z" fill="#4c241d"/></g><g><path d="m220.116 220h-20.296c-5.441 0-9.852-4.411-9.852-9.852v-38.148h40v38.148c0 5.441-4.411 9.852-9.852 9.852z" fill="#bf7e68"/><path d="m220.117 224h-20.297c-7.637 0-13.852-6.213-13.852-13.852v-38.148c0-2.209 1.789-4 4-4h40c2.211 0 4 1.791 4 4v38.148c0 7.639-6.215 13.852-13.851 13.852zm-26.149-48v34.148c0 3.227 2.625 5.852 5.852 5.852h20.297c3.227 0 5.852-2.625 5.852-5.852v-34.148z" fill="#4c241d"/></g><g><path d="m236.024 200h-6.056v-11.888h6.056c3.283 0 5.944 2.661 5.944 5.944 0 3.283-2.661 5.944-5.944 5.944z" fill="#bf7e68"/><path d="m236.023 204h-6.055c-2.211 0-4-1.791-4-4v-11.889c0-2.209 1.789-4 4-4h6.055c5.484 0 9.945 4.461 9.945 9.943 0 5.485-4.461 9.946-9.945 9.946zm-2.055-8h2.055c1.074 0 1.945-.873 1.945-1.945s-.871-1.943-1.945-1.943h-2.055z" fill="#4c241d"/></g><g><path d="m183.912 188.112h6.056v11.888h-6.056c-3.283 0-5.944-2.661-5.944-5.944 0-3.283 2.661-5.944 5.944-5.944z" fill="#bf7e68"/><path d="m189.968 204h-6.055c-5.484 0-9.945-4.461-9.945-9.945 0-5.482 4.461-9.943 9.945-9.943h6.055c2.211 0 4 1.791 4 4v11.888c0 2.209-1.789 4-4 4zm-6.055-11.889c-1.074 0-1.945.871-1.945 1.943s.871 1.945 1.945 1.945h2.055v-3.889h-2.055z" fill="#4c241d"/></g><g><path d="m237.968 188.112v-17.827c0-3.141-.94-6.275-2.952-8.71-7.88-9.534-22.805-13.896-34.812-15.891-9.517-1.582-18.175 5.656-18.175 15.17v27.259l7.94-.112v-16s20 16 40 8v8z" fill="#fff"/><path d="m182.027 192.111c-1.051 0-2.059-.414-2.809-1.152-.762-.752-1.191-1.777-1.191-2.848v-27.26c0-5.67 2.496-11.035 6.844-14.723 4.418-3.748 10.246-5.35 15.988-4.391 12.137 2.016 28.449 6.65 37.238 17.287 2.496 3.021 3.871 7.02 3.871 11.26v17.826c0 1.07-.43 2.096-1.191 2.848-.766.752-1.871 1.066-2.863 1.152l-8-.111c-2.188-.031-3.945-1.812-3.945-4v-2.594c-12.875 2.861-24.914-2.057-32-6.031v8.626c0 2.188-1.758 3.969-3.945 4l-7.941.111c-.017 0-.037 0-.056 0zm47.941-16.111c.789 0 1.57.232 2.242.688 1.098.744 1.758 1.984 1.758 3.312v-9.715c0-2.385-.723-4.572-2.039-6.164-7.211-8.73-21.59-12.699-32.383-14.492-3.398-.564-6.879.383-9.504 2.604-2.551 2.164-4.016 5.305-4.016 8.619v10.467c.219-1.258 1.031-2.352 2.203-2.918 1.391-.672 3.027-.482 4.23.471.184.145 18.477 14.426 36.023 7.414.478-.192.982-.286 1.486-.286z" fill="#4c241d"/></g><path d="m105.968 260c-2.211 0-4-1.791-4-4v-16c0-2.209 1.789-4 4-4s4 1.791 4 4v16c0 2.209-1.789 4-4 4z" fill="#f53e28"/></g></svg>