<svg id="Capa_1" enable-background="new 0 0 512 512" height="512" viewBox="0 0 512 512" width="512" xmlns="http://www.w3.org/2000/svg"><g><g><path d="m481.095 415.609h-450.19c-17.068 0-30.905-13.836-30.905-30.905v-298.49c0-17.069 13.837-30.905 30.905-30.905h450.189c17.069 0 30.905 13.837 30.905 30.905v298.49c.001 17.069-13.836 30.905-30.904 30.905z" fill="#918291"/><path d="m30.905 353.799v-261.404c0-3.414 2.767-6.181 6.181-6.181h444.008v267.584h-450.189z" fill="#d8ecfe"/><path d="m30.905 415.609h450.189c17.068 0 30.905-13.837 30.905-30.905v-30.905h-511.999v30.905c0 17.069 13.837 30.905 30.905 30.905z" fill="#a79ba7"/><g><path d="m270.257 392.431h-28.513c-4.268 0-7.726-3.459-7.726-7.726s3.459-7.726 7.726-7.726h28.513c4.268 0 7.726 3.459 7.726 7.726s-3.459 7.726-7.726 7.726z" fill="#7a6d79"/></g><path d="m346.487 500.41h-180.974l30.905-84.801h119.164z" fill="#918291"/><path d="m334.115 466.462-146.066-27.888 8.369-22.965h119.164z" fill="#7a6d79"/><g><path d="m361.94 508.137h-211.88c-4.268 0-7.726-3.459-7.726-7.726s3.459-7.726 7.726-7.726h211.88c4.268 0 7.726 3.459 7.726 7.726s-3.459 7.726-7.726 7.726z" fill="#7a6d79"/></g></g><g><g><g><path d="m368.073 73.711-14.69 48.419-26.352 86.824c-2.133 7.046-9.581 11.023-16.627 8.89l-89.317-27.104c-7.046-2.143-11.023-9.581-8.88-16.627l41.032-135.253c2.143-7.046 9.591-11.023 16.637-8.89l89.317 27.104c7.046 2.143 11.023 9.591 8.88 16.637z" fill="#fee45a"/><path d="m368.073 73.711-14.69 48.419-40.744 1.772c-2.751.124-5.14-1.875-5.512-4.615l-.989-7.273c-1.133-8.386 4.42-16.205 12.702-17.905l32.791-6.727 5.295-17.42c1.834-6.057-.845-12.403-6.109-15.432l8.375 2.545c7.047 2.142 11.024 9.59 8.881 16.636z" fill="#fedf30"/><path d="m339.244 51.023 16.965-21.906c3.734-4.821 9.678-7.392 15.748-6.812l81.795 7.82 15.317 59.809-46.829 26.767c-8.285 4.736-17.583 7.424-27.117 7.839l-71.325 3.109c-2.756.12-5.148-1.881-5.518-4.614l-.983-7.278c-1.132-8.378 4.419-16.202 12.7-17.9l32.792-6.727 5.287-17.423c2.138-7.047-1.841-14.493-8.888-16.631z" fill="#f6a96c"/><path d="m511.782 81.566-19.79-73.104c-.935-3.453-4.581-5.408-7.974-4.277l-28.811 9.604c-3.109 1.036-4.882 4.307-4.052 7.478l19.069 72.896c.902 3.448 4.51 5.435 7.907 4.355l29.532-9.396c3.174-1.011 4.99-4.341 4.119-7.556z" fill="#fe646f"/></g></g><path d="m376.273 220.006h-225.094c-3.983 0-7.211-3.229-7.211-7.211v-16.483c0-3.983 3.229-7.211 7.211-7.211h225.094c3.983 0 7.211 3.229 7.211 7.211v16.483c.001 3.983-3.228 7.211-7.211 7.211z" fill="#aa6a51"/><path d="m357.73 353.799h-188.007c-5.69 0-10.302-4.612-10.302-10.302v-123.49h208.611v123.49c0 5.689-4.612 10.302-10.302 10.302z" fill="#aa6a51"/><path d="m159.421 220.006v10.302l208.611 20.604v-30.906z" fill="#935b44"/><g fill="#e8edf2"><circle cx="232.821" cy="286.903" r="7.726"/><circle cx="263.726" cy="286.903" r="7.726"/><circle cx="294.632" cy="286.903" r="7.726"/></g></g></g></svg>